<svg id="Layer_2" data-name="Layer 2" xmlns="http://www.w3.org/2000/svg" viewBox="0 0 123.13 165">
  <g id="Layer_1-2" data-name="Layer 1">
    <g>
      <rect x="7.5" y="107.49" width="108.13" height="50.01" style="fill: #fff;"/>
      <g>
        <g>
          <rect y="138.33" width="15" height="11.67" style="fill: none;"/>
          <rect x="6.97" y="139.19" width="1.5" height="2.17" style="fill: #231f20;"/>
          <rect x="6.97" y="143.08" width="1.5" height="2.17" style="fill: #231f20;"/>
          <rect x="6.97" y="146.95" width="1.5" height="2.17" style="fill: #231f20;"/>
        </g>
        <g>
          <rect y="126.66" width="15" height="11.67" style="fill: none;"/>
          <rect x="6.97" y="127.53" width="1.5" height="2.17" style="fill: #231f20;"/>
          <rect x="6.97" y="131.41" width="1.5" height="2.17" style="fill: #231f20;"/>
          <rect x="6.97" y="135.28" width="1.5" height="2.17" style="fill: #231f20;"/>
        </g>
        <g>
          <rect y="114.99" width="15" height="11.67" style="fill: none;"/>
          <rect x="6.97" y="115.86" width="1.5" height="2.17" style="fill: #231f20;"/>
          <rect x="6.97" y="119.74" width="1.5" height="2.17" style="fill: #231f20;"/>
          <rect x="6.97" y="123.61" width="1.5" height="2.17" style="fill: #231f20;"/>
        </g>
        <g>
          <rect x="15" y="100" width="13.3" height="15" style="fill: none;"/>
          <rect x="24.85" y="106.96" width="2.47" height="1.5" style="fill: #231f20;"/>
          <rect x="20.42" y="106.96" width="2.47" height="1.5" style="fill: #231f20;"/>
          <rect x="16.01" y="106.96" width="2.47" height="1.5" style="fill: #231f20;"/>
        </g>
        <g>
          <rect x="28.3" y="100" width="13.3" height="15" style="fill: none;"/>
          <rect x="38.16" y="106.96" width="2.47" height="1.5" style="fill: #231f20;"/>
          <rect x="33.73" y="106.96" width="2.47" height="1.5" style="fill: #231f20;"/>
          <rect x="29.31" y="106.96" width="2.47" height="1.5" style="fill: #231f20;"/>
        </g>
        <g>
          <rect x="41.61" y="100" width="13.3" height="15" style="fill: none;"/>
          <rect x="51.46" y="106.96" width="2.47" height="1.5" style="fill: #231f20;"/>
          <rect x="47.03" y="106.96" width="2.47" height="1.5" style="fill: #231f20;"/>
          <rect x="42.62" y="106.96" width="2.47" height="1.5" style="fill: #231f20;"/>
        </g>
        <g>
          <rect x="54.91" y="100" width="13.3" height="15" style="fill: none;"/>
          <rect x="64.76" y="106.96" width="2.47" height="1.5" style="fill: #231f20;"/>
          <rect x="60.34" y="106.96" width="2.47" height="1.5" style="fill: #231f20;"/>
          <rect x="55.92" y="106.96" width="2.47" height="1.5" style="fill: #231f20;"/>
        </g>
        <g>
          <rect x="68.22" y="100" width="13.3" height="15" style="fill: none;"/>
          <rect x="78.07" y="106.96" width="2.47" height="1.5" style="fill: #231f20;"/>
          <rect x="73.64" y="106.96" width="2.47" height="1.5" style="fill: #231f20;"/>
          <rect x="69.23" y="106.96" width="2.47" height="1.5" style="fill: #231f20;"/>
        </g>
        <g>
          <rect x="81.52" y="100" width="13.3" height="15" style="fill: none;"/>
          <rect x="91.37" y="106.96" width="2.47" height="1.5" style="fill: #231f20;"/>
          <rect x="86.94" y="106.96" width="2.47" height="1.5" style="fill: #231f20;"/>
          <rect x="82.53" y="106.96" width="2.47" height="1.5" style="fill: #231f20;"/>
        </g>
        <g>
          <rect x="94.83" y="100" width="13.3" height="15" style="fill: none;"/>
          <rect x="104.68" y="106.96" width="2.47" height="1.5" style="fill: #231f20;"/>
          <rect x="100.25" y="106.96" width="2.47" height="1.5" style="fill: #231f20;"/>
          <rect x="95.83" y="106.96" width="2.47" height="1.5" style="fill: #231f20;"/>
        </g>
        <g>
          <rect x="108.13" y="114.99" width="15" height="11.67" style="fill: none;"/>
          <rect x="114.66" y="123.64" width="1.5" height="2.17" style="fill: #231f20;"/>
          <rect x="114.66" y="119.75" width="1.5" height="2.17" style="fill: #231f20;"/>
          <rect x="114.66" y="115.88" width="1.5" height="2.17" style="fill: #231f20;"/>
        </g>
        <g>
          <rect x="108.13" y="126.66" width="15" height="11.67" style="fill: none;"/>
          <rect x="114.66" y="135.3" width="1.5" height="2.17" style="fill: #231f20;"/>
          <rect x="114.66" y="131.42" width="1.5" height="2.17" style="fill: #231f20;"/>
          <rect x="114.66" y="127.55" width="1.5" height="2.17" style="fill: #231f20;"/>
        </g>
        <g>
          <rect x="108.13" y="138.33" width="15" height="11.67" style="fill: none;"/>
          <rect x="114.66" y="146.97" width="1.5" height="2.17" style="fill: #231f20;"/>
          <rect x="114.66" y="143.09" width="1.5" height="2.17" style="fill: #231f20;"/>
          <rect x="114.66" y="139.22" width="1.5" height="2.17" style="fill: #231f20;"/>
        </g>
        <g>
          <rect x="94.83" y="150" width="13.3" height="15" style="fill: none;"/>
          <rect x="95.81" y="156.53" width="2.47" height="1.5" style="fill: #231f20;"/>
          <rect x="100.24" y="156.53" width="2.47" height="1.5" style="fill: #231f20;"/>
          <rect x="104.65" y="156.53" width="2.47" height="1.5" style="fill: #231f20;"/>
        </g>
        <g>
          <rect x="81.52" y="150" width="13.3" height="15" style="fill: none;"/>
          <rect x="82.5" y="156.53" width="2.47" height="1.5" style="fill: #231f20;"/>
          <rect x="86.93" y="156.53" width="2.47" height="1.5" style="fill: #231f20;"/>
          <rect x="91.35" y="156.53" width="2.47" height="1.5" style="fill: #231f20;"/>
        </g>
        <g>
          <rect x="68.22" y="150" width="13.3" height="15" style="fill: none;"/>
          <rect x="69.2" y="156.53" width="2.47" height="1.5" style="fill: #231f20;"/>
          <rect x="73.63" y="156.53" width="2.47" height="1.5" style="fill: #231f20;"/>
          <rect x="78.04" y="156.53" width="2.47" height="1.5" style="fill: #231f20;"/>
        </g>
        <g>
          <rect x="54.91" y="150" width="13.3" height="15" style="fill: none;"/>
          <rect x="55.9" y="156.53" width="2.47" height="1.5" style="fill: #231f20;"/>
          <rect x="60.32" y="156.53" width="2.47" height="1.5" style="fill: #231f20;"/>
          <rect x="64.74" y="156.53" width="2.47" height="1.5" style="fill: #231f20;"/>
        </g>
        <g>
          <rect x="41.61" y="150" width="13.3" height="15" style="fill: none;"/>
          <rect x="42.59" y="156.53" width="2.47" height="1.5" style="fill: #231f20;"/>
          <rect x="47.02" y="156.53" width="2.47" height="1.5" style="fill: #231f20;"/>
          <rect x="51.43" y="156.53" width="2.47" height="1.5" style="fill: #231f20;"/>
        </g>
        <g>
          <rect x="28.3" y="150" width="13.3" height="15" style="fill: none;"/>
          <rect x="29.29" y="156.53" width="2.47" height="1.5" style="fill: #231f20;"/>
          <rect x="33.72" y="156.53" width="2.47" height="1.5" style="fill: #231f20;"/>
          <rect x="38.13" y="156.53" width="2.47" height="1.5" style="fill: #231f20;"/>
        </g>
        <g>
          <rect x="15" y="150" width="13.3" height="15" style="fill: none;"/>
          <rect x="15.98" y="156.53" width="2.47" height="1.5" style="fill: #231f20;"/>
          <rect x="20.41" y="156.53" width="2.47" height="1.5" style="fill: #231f20;"/>
          <rect x="24.83" y="156.53" width="2.47" height="1.5" style="fill: #231f20;"/>
        </g>
        <g>
          <rect x="6.86" y="111.46" width="1.51" height="2.5" style="fill: #231f20;"/>
          <polygon points="6.86 106.96 6.86 109.46 8.37 109.46 8.37 108.46 9.36 108.46 9.36 106.96 6.86 106.96" style="fill: #231f20; fill-rule: evenodd;"/>
          <rect x="11.36" y="106.96" width="2.5" height="1.5" style="fill: #231f20;"/>
        </g>
        <g>
          <rect x="109.16" y="106.86" width="2.5" height="1.51" style="fill: #231f20;"/>
          <polygon points="116.16 106.86 113.66 106.86 113.66 108.36 114.66 108.36 114.66 109.36 116.16 109.36 116.16 106.86" style="fill: #231f20; fill-rule: evenodd;"/>
          <rect x="114.66" y="111.36" width="1.5" height="2.5" style="fill: #231f20;"/>
        </g>
        <g>
          <rect x="114.76" y="151.03" width="1.51" height="2.5" style="fill: #231f20;"/>
          <polygon points="116.27 158.03 116.27 155.53 114.76 155.53 114.76 156.53 113.77 156.53 113.77 158.03 116.27 158.03" style="fill: #231f20; fill-rule: evenodd;"/>
          <rect x="109.27" y="156.53" width="2.5" height="1.5" style="fill: #231f20;"/>
        </g>
        <g>
          <rect x="11.47" y="156.63" width="2.5" height="1.51" style="fill: #231f20;"/>
          <polygon points="6.97 158.14 9.47 158.14 9.47 156.63 8.47 156.63 8.47 155.64 6.97 155.64 6.97 158.14" style="fill: #231f20; fill-rule: evenodd;"/>
          <rect x="6.97" y="151.14" width="1.5" height="2.5" style="fill: #231f20;"/>
        </g>
      </g>
    </g>
    <rect id="tuba-8" x="7.55" y=".5" width="108.13" height="108.13" style="fill: #fff; stroke: #231f20; stroke-miterlimit: 10;"/>
    <g>
      <rect x="4.35" y="9.41" width="73.77" height="61.14" rx="6.32" ry="6.32" transform="translate(81.22 -1.26) rotate(90)" style="fill: #fff; stroke: #231f20; stroke-miterlimit: 10;"/>
      <rect x="49.96" y="3.23" width="10.23" height="21.34" rx="3.51" ry="3.51" transform="translate(68.97 -41.18) rotate(90)" style="fill: #fff; stroke: #231f20; stroke-miterlimit: 10;"/>
      <rect x="21.02" y="3.23" width="10.23" height="21.34" rx="3.51" ry="3.51" transform="translate(40.03 -12.24) rotate(90)" style="fill: #fff; stroke: #231f20; stroke-miterlimit: 10;"/>
    </g>
    <rect x="89.24" y="90.06" width="2.27" height="37.14" transform="translate(-18.26 199.01) rotate(-90)" style="fill: #231f20; stroke: #231f20; stroke-miterlimit: 10;"/>
    <g>
      <text transform="translate(83.78 95.5)" style="fill: #231f20; font-family: MyriadPro-Regular, &apos;Myriad Pro&apos;; font-size: 28px;"><tspan x="0" y="0">8</tspan></text>
      <circle cx="90.38" cy="86.93" r="15.33" style="fill: none; stroke: #231f20; stroke-miterlimit: 10;"/>
    </g>
  </g>
</svg>