<svg id="Layer_2" data-name="Layer 2" xmlns="http://www.w3.org/2000/svg" viewBox="0 0 266.32 243.19">
  <g id="Layer_1-2" data-name="Layer 1">
    <g>
      <rect x="7.5" y="7.5" width="251.32" height="49.17" style="fill: #fff;"/>
      <g>
        <g>
          <rect y="37.78" width="15" height="11.39" style="fill: none;"/>
          <rect x="6.97" y="38.62" width="1.5" height="2.11" style="fill: #231f20;"/>
          <rect x="6.97" y="42.41" width="1.5" height="2.11" style="fill: #231f20;"/>
          <rect x="6.97" y="46.19" width="1.5" height="2.11" style="fill: #231f20;"/>
        </g>
        <g>
          <rect y="26.39" width="15" height="11.39" style="fill: none;"/>
          <rect x="6.97" y="27.23" width="1.5" height="2.11" style="fill: #231f20;"/>
          <rect x="6.97" y="31.02" width="1.5" height="2.11" style="fill: #231f20;"/>
          <rect x="6.97" y="34.8" width="1.5" height="2.11" style="fill: #231f20;"/>
        </g>
        <g>
          <rect y="15" width="15" height="11.39" style="fill: none;"/>
          <rect x="6.97" y="15.84" width="1.5" height="2.11" style="fill: #231f20;"/>
          <rect x="6.97" y="19.63" width="1.5" height="2.11" style="fill: #231f20;"/>
          <rect x="6.97" y="23.41" width="1.5" height="2.11" style="fill: #231f20;"/>
        </g>
        <g>
          <rect x="15" width="13.13" height="15" style="fill: none;"/>
          <rect x="24.72" y="6.97" width="2.44" height="1.5" style="fill: #231f20;"/>
          <rect x="20.35" y="6.97" width="2.44" height="1.5" style="fill: #231f20;"/>
          <rect x="15.99" y="6.97" width="2.44" height="1.5" style="fill: #231f20;"/>
        </g>
        <g>
          <rect x="28.13" width="13.13" height="15" style="fill: none;"/>
          <rect x="37.85" y="6.97" width="2.44" height="1.5" style="fill: #231f20;"/>
          <rect x="33.48" y="6.97" width="2.44" height="1.5" style="fill: #231f20;"/>
          <rect x="29.12" y="6.97" width="2.44" height="1.5" style="fill: #231f20;"/>
        </g>
        <g>
          <rect x="41.26" width="13.13" height="15" style="fill: none;"/>
          <rect x="50.98" y="6.97" width="2.44" height="1.5" style="fill: #231f20;"/>
          <rect x="46.61" y="6.97" width="2.44" height="1.5" style="fill: #231f20;"/>
          <rect x="42.25" y="6.97" width="2.44" height="1.5" style="fill: #231f20;"/>
        </g>
        <g>
          <rect x="54.39" width="13.13" height="15" style="fill: none;"/>
          <rect x="64.11" y="6.97" width="2.44" height="1.5" style="fill: #231f20;"/>
          <rect x="59.74" y="6.97" width="2.44" height="1.5" style="fill: #231f20;"/>
          <rect x="55.38" y="6.97" width="2.44" height="1.5" style="fill: #231f20;"/>
        </g>
        <g>
          <rect x="67.52" width="13.13" height="15" style="fill: none;"/>
          <rect x="77.24" y="6.97" width="2.44" height="1.5" style="fill: #231f20;"/>
          <rect x="72.87" y="6.97" width="2.44" height="1.5" style="fill: #231f20;"/>
          <rect x="68.51" y="6.97" width="2.44" height="1.5" style="fill: #231f20;"/>
        </g>
        <g>
          <rect x="80.64" width="13.13" height="15" style="fill: none;"/>
          <rect x="90.37" y="6.97" width="2.44" height="1.5" style="fill: #231f20;"/>
          <rect x="86" y="6.97" width="2.44" height="1.5" style="fill: #231f20;"/>
          <rect x="81.64" y="6.97" width="2.44" height="1.5" style="fill: #231f20;"/>
        </g>
        <g>
          <rect x="93.77" width="13.13" height="15" style="fill: none;"/>
          <rect x="103.5" y="6.97" width="2.44" height="1.5" style="fill: #231f20;"/>
          <rect x="99.12" y="6.97" width="2.44" height="1.5" style="fill: #231f20;"/>
          <rect x="94.77" y="6.97" width="2.44" height="1.5" style="fill: #231f20;"/>
        </g>
        <g>
          <rect x="106.9" width="13.13" height="15" style="fill: none;"/>
          <rect x="116.62" y="6.97" width="2.44" height="1.5" style="fill: #231f20;"/>
          <rect x="112.25" y="6.97" width="2.44" height="1.5" style="fill: #231f20;"/>
          <rect x="107.9" y="6.97" width="2.44" height="1.5" style="fill: #231f20;"/>
        </g>
        <g>
          <rect x="120.03" width="13.13" height="15" style="fill: none;"/>
          <rect x="129.75" y="6.97" width="2.44" height="1.5" style="fill: #231f20;"/>
          <rect x="125.38" y="6.97" width="2.44" height="1.5" style="fill: #231f20;"/>
          <rect x="121.03" y="6.97" width="2.44" height="1.5" style="fill: #231f20;"/>
        </g>
        <g>
          <rect x="133.16" width="13.13" height="15" style="fill: none;"/>
          <rect x="142.88" y="6.97" width="2.44" height="1.5" style="fill: #231f20;"/>
          <rect x="138.51" y="6.97" width="2.44" height="1.5" style="fill: #231f20;"/>
          <rect x="134.16" y="6.97" width="2.44" height="1.5" style="fill: #231f20;"/>
        </g>
        <g>
          <rect x="146.29" width="13.13" height="15" style="fill: none;"/>
          <rect x="156.01" y="6.97" width="2.44" height="1.5" style="fill: #231f20;"/>
          <rect x="151.64" y="6.97" width="2.44" height="1.5" style="fill: #231f20;"/>
          <rect x="147.28" y="6.97" width="2.44" height="1.5" style="fill: #231f20;"/>
        </g>
        <g>
          <rect x="159.42" width="13.13" height="15" style="fill: none;"/>
          <rect x="169.14" y="6.97" width="2.44" height="1.5" style="fill: #231f20;"/>
          <rect x="164.77" y="6.97" width="2.44" height="1.5" style="fill: #231f20;"/>
          <rect x="160.41" y="6.97" width="2.44" height="1.5" style="fill: #231f20;"/>
        </g>
        <g>
          <rect x="172.55" width="13.13" height="15" style="fill: none;"/>
          <rect x="182.27" y="6.97" width="2.44" height="1.5" style="fill: #231f20;"/>
          <rect x="177.9" y="6.97" width="2.44" height="1.5" style="fill: #231f20;"/>
          <rect x="173.54" y="6.97" width="2.44" height="1.5" style="fill: #231f20;"/>
        </g>
        <g>
          <rect x="185.68" width="13.13" height="15" style="fill: none;"/>
          <rect x="195.4" y="6.97" width="2.44" height="1.5" style="fill: #231f20;"/>
          <rect x="191.03" y="6.97" width="2.44" height="1.5" style="fill: #231f20;"/>
          <rect x="186.67" y="6.97" width="2.44" height="1.5" style="fill: #231f20;"/>
        </g>
        <g>
          <rect x="198.81" width="13.13" height="15" style="fill: none;"/>
          <rect x="208.53" y="6.97" width="2.44" height="1.5" style="fill: #231f20;"/>
          <rect x="204.16" y="6.97" width="2.44" height="1.5" style="fill: #231f20;"/>
          <rect x="199.8" y="6.97" width="2.44" height="1.5" style="fill: #231f20;"/>
        </g>
        <g>
          <rect x="211.94" width="13.13" height="15" style="fill: none;"/>
          <rect x="221.66" y="6.97" width="2.44" height="1.5" style="fill: #231f20;"/>
          <rect x="217.29" y="6.97" width="2.44" height="1.5" style="fill: #231f20;"/>
          <rect x="212.93" y="6.97" width="2.44" height="1.5" style="fill: #231f20;"/>
        </g>
        <g>
          <rect x="225.06" width="13.13" height="15" style="fill: none;"/>
          <rect x="234.79" y="6.97" width="2.44" height="1.5" style="fill: #231f20;"/>
          <rect x="230.42" y="6.97" width="2.44" height="1.5" style="fill: #231f20;"/>
          <rect x="226.06" y="6.97" width="2.44" height="1.5" style="fill: #231f20;"/>
        </g>
        <g>
          <rect x="238.19" width="13.13" height="15" style="fill: none;"/>
          <rect x="247.92" y="6.97" width="2.44" height="1.5" style="fill: #231f20;"/>
          <rect x="243.55" y="6.97" width="2.44" height="1.5" style="fill: #231f20;"/>
          <rect x="239.19" y="6.97" width="2.44" height="1.5" style="fill: #231f20;"/>
        </g>
        <g>
          <rect x="251.32" y="15" width="15" height="11.39" style="fill: none;"/>
          <rect x="257.85" y="23.43" width="1.5" height="2.11" style="fill: #231f20;"/>
          <rect x="257.85" y="19.64" width="1.5" height="2.11" style="fill: #231f20;"/>
          <rect x="257.85" y="15.86" width="1.5" height="2.11" style="fill: #231f20;"/>
        </g>
        <g>
          <rect x="251.32" y="26.39" width="15" height="11.39" style="fill: none;"/>
          <rect x="257.85" y="34.82" width="1.5" height="2.11" style="fill: #231f20;"/>
          <rect x="257.85" y="31.03" width="1.5" height="2.11" style="fill: #231f20;"/>
          <rect x="257.85" y="27.25" width="1.5" height="2.11" style="fill: #231f20;"/>
        </g>
        <g>
          <rect x="251.32" y="37.78" width="15" height="11.39" style="fill: none;"/>
          <rect x="257.85" y="46.21" width="1.5" height="2.11" style="fill: #231f20;"/>
          <rect x="257.85" y="42.42" width="1.5" height="2.11" style="fill: #231f20;"/>
          <rect x="257.85" y="38.64" width="1.5" height="2.11" style="fill: #231f20;"/>
        </g>
        <g>
          <rect x="238.19" y="49.17" width="13.13" height="15" style="fill: none;"/>
          <rect x="239.16" y="55.7" width="2.44" height="1.5" style="fill: #231f20;"/>
          <rect x="243.53" y="55.7" width="2.44" height="1.5" style="fill: #231f20;"/>
          <rect x="247.89" y="55.7" width="2.44" height="1.5" style="fill: #231f20;"/>
        </g>
        <g>
          <rect x="225.06" y="49.17" width="13.13" height="15" style="fill: none;"/>
          <rect x="226.03" y="55.7" width="2.44" height="1.5" style="fill: #231f20;"/>
          <rect x="230.41" y="55.7" width="2.44" height="1.5" style="fill: #231f20;"/>
          <rect x="234.76" y="55.7" width="2.44" height="1.5" style="fill: #231f20;"/>
        </g>
        <g>
          <rect x="211.94" y="49.17" width="13.13" height="15" style="fill: none;"/>
          <rect x="212.91" y="55.7" width="2.44" height="1.5" style="fill: #231f20;"/>
          <rect x="217.28" y="55.7" width="2.44" height="1.5" style="fill: #231f20;"/>
          <rect x="221.63" y="55.7" width="2.44" height="1.5" style="fill: #231f20;"/>
        </g>
        <g>
          <rect x="198.81" y="49.17" width="13.13" height="15" style="fill: none;"/>
          <rect x="199.78" y="55.7" width="2.44" height="1.5" style="fill: #231f20;"/>
          <rect x="204.15" y="55.7" width="2.44" height="1.5" style="fill: #231f20;"/>
          <rect x="208.5" y="55.7" width="2.44" height="1.5" style="fill: #231f20;"/>
        </g>
        <g>
          <rect x="185.68" y="49.17" width="13.13" height="15" style="fill: none;"/>
          <rect x="186.65" y="55.7" width="2.44" height="1.5" style="fill: #231f20;"/>
          <rect x="191.02" y="55.7" width="2.44" height="1.5" style="fill: #231f20;"/>
          <rect x="195.37" y="55.7" width="2.44" height="1.5" style="fill: #231f20;"/>
        </g>
        <g>
          <rect x="172.55" y="49.17" width="13.13" height="15" style="fill: none;"/>
          <rect x="173.52" y="55.7" width="2.44" height="1.5" style="fill: #231f20;"/>
          <rect x="177.89" y="55.7" width="2.44" height="1.5" style="fill: #231f20;"/>
          <rect x="182.25" y="55.7" width="2.44" height="1.5" style="fill: #231f20;"/>
        </g>
        <g>
          <rect x="159.42" y="49.17" width="13.13" height="15" style="fill: none;"/>
          <rect x="160.39" y="55.7" width="2.44" height="1.5" style="fill: #231f20;"/>
          <rect x="164.76" y="55.7" width="2.44" height="1.5" style="fill: #231f20;"/>
          <rect x="169.12" y="55.7" width="2.44" height="1.5" style="fill: #231f20;"/>
        </g>
        <g>
          <rect x="146.29" y="49.17" width="13.13" height="15" style="fill: none;"/>
          <rect x="147.26" y="55.7" width="2.44" height="1.5" style="fill: #231f20;"/>
          <rect x="151.63" y="55.7" width="2.44" height="1.5" style="fill: #231f20;"/>
          <rect x="155.99" y="55.7" width="2.44" height="1.5" style="fill: #231f20;"/>
        </g>
        <g>
          <rect x="133.16" y="49.17" width="13.13" height="15" style="fill: none;"/>
          <rect x="134.13" y="55.7" width="2.44" height="1.5" style="fill: #231f20;"/>
          <rect x="138.5" y="55.7" width="2.44" height="1.5" style="fill: #231f20;"/>
          <rect x="142.86" y="55.7" width="2.44" height="1.5" style="fill: #231f20;"/>
        </g>
        <g>
          <rect x="120.03" y="49.17" width="13.13" height="15" style="fill: none;"/>
          <rect x="121" y="55.7" width="2.44" height="1.5" style="fill: #231f20;"/>
          <rect x="125.37" y="55.7" width="2.44" height="1.5" style="fill: #231f20;"/>
          <rect x="129.73" y="55.7" width="2.44" height="1.5" style="fill: #231f20;"/>
        </g>
        <g>
          <rect x="106.9" y="49.17" width="13.13" height="15" style="fill: none;"/>
          <rect x="107.87" y="55.7" width="2.44" height="1.5" style="fill: #231f20;"/>
          <rect x="112.24" y="55.7" width="2.44" height="1.5" style="fill: #231f20;"/>
          <rect x="116.6" y="55.7" width="2.44" height="1.5" style="fill: #231f20;"/>
        </g>
        <g>
          <rect x="93.77" y="49.17" width="13.13" height="15" style="fill: none;"/>
          <rect x="94.74" y="55.7" width="2.44" height="1.5" style="fill: #231f20;"/>
          <rect x="99.11" y="55.7" width="2.44" height="1.5" style="fill: #231f20;"/>
          <rect x="103.47" y="55.7" width="2.44" height="1.5" style="fill: #231f20;"/>
        </g>
        <g>
          <rect x="80.64" y="49.17" width="13.13" height="15" style="fill: none;"/>
          <rect x="81.61" y="55.7" width="2.44" height="1.5" style="fill: #231f20;"/>
          <rect x="85.99" y="55.7" width="2.44" height="1.5" style="fill: #231f20;"/>
          <rect x="90.34" y="55.7" width="2.44" height="1.5" style="fill: #231f20;"/>
        </g>
        <g>
          <rect x="67.52" y="49.17" width="13.13" height="15" style="fill: none;"/>
          <rect x="68.49" y="55.7" width="2.44" height="1.5" style="fill: #231f20;"/>
          <rect x="72.86" y="55.7" width="2.44" height="1.5" style="fill: #231f20;"/>
          <rect x="77.21" y="55.7" width="2.44" height="1.5" style="fill: #231f20;"/>
        </g>
        <g>
          <rect x="54.39" y="49.17" width="13.13" height="15" style="fill: none;"/>
          <rect x="55.36" y="55.7" width="2.44" height="1.5" style="fill: #231f20;"/>
          <rect x="59.73" y="55.7" width="2.44" height="1.5" style="fill: #231f20;"/>
          <rect x="64.08" y="55.7" width="2.44" height="1.5" style="fill: #231f20;"/>
        </g>
        <g>
          <rect x="41.26" y="49.17" width="13.13" height="15" style="fill: none;"/>
          <rect x="42.23" y="55.7" width="2.44" height="1.5" style="fill: #231f20;"/>
          <rect x="46.6" y="55.7" width="2.44" height="1.5" style="fill: #231f20;"/>
          <rect x="50.95" y="55.7" width="2.44" height="1.5" style="fill: #231f20;"/>
        </g>
        <g>
          <rect x="28.13" y="49.17" width="13.13" height="15" style="fill: none;"/>
          <rect x="29.1" y="55.7" width="2.44" height="1.5" style="fill: #231f20;"/>
          <rect x="33.47" y="55.7" width="2.44" height="1.5" style="fill: #231f20;"/>
          <rect x="37.83" y="55.7" width="2.44" height="1.5" style="fill: #231f20;"/>
        </g>
        <g>
          <rect x="15" y="49.17" width="13.13" height="15" style="fill: none;"/>
          <rect x="15.97" y="55.7" width="2.44" height="1.5" style="fill: #231f20;"/>
          <rect x="20.34" y="55.7" width="2.44" height="1.5" style="fill: #231f20;"/>
          <rect x="24.7" y="55.7" width="2.44" height="1.5" style="fill: #231f20;"/>
        </g>
        <g>
          <rect x="6.86" y="11.47" width="1.51" height="2.5" style="fill: #231f20;"/>
          <polygon points="6.86 6.97 6.86 9.47 8.37 9.47 8.37 8.47 9.36 8.47 9.36 6.97 6.86 6.97" style="fill: #231f20; fill-rule: evenodd;"/>
          <rect x="11.36" y="6.97" width="2.5" height="1.5" style="fill: #231f20;"/>
        </g>
        <g>
          <rect x="252.35" y="6.86" width="2.5" height="1.51" style="fill: #231f20;"/>
          <polygon points="259.35 6.86 256.85 6.86 256.85 8.37 257.85 8.37 257.85 9.36 259.35 9.36 259.35 6.86" style="fill: #231f20; fill-rule: evenodd;"/>
          <rect x="257.85" y="11.36" width="1.5" height="2.5" style="fill: #231f20;"/>
        </g>
        <g>
          <rect x="257.95" y="50.2" width="1.51" height="2.5" style="fill: #231f20;"/>
          <polygon points="259.46 57.2 259.46 54.7 257.95 54.7 257.95 55.7 256.96 55.7 256.96 57.2 259.46 57.2" style="fill: #231f20; fill-rule: evenodd;"/>
          <rect x="252.46" y="55.7" width="2.5" height="1.5" style="fill: #231f20;"/>
        </g>
        <g>
          <rect x="11.47" y="55.8" width="2.5" height="1.51" style="fill: #231f20;"/>
          <polygon points="6.97 57.3 9.47 57.3 9.47 55.8 8.47 55.8 8.47 54.8 6.97 54.8 6.97 57.3" style="fill: #231f20; fill-rule: evenodd;"/>
          <rect x="6.97" y="50.3" width="1.5" height="2.5" style="fill: #231f20;"/>
        </g>
      </g>
    </g>
    <rect x="7.5" y="53.56" width="251.32" height="189.13" style="fill: #fff; stroke: #231f20; stroke-miterlimit: 10;"/>
    <rect id="tuba-6" x="7.5" y="53.56" width="127.36" height="189.13" style="fill: #fff; stroke: #231f20; stroke-miterlimit: 10;"/>
    <rect id="tuba-7" x="134.86" y="53.56" width="123.97" height="189.13" style="fill: #fff; stroke: #231f20; stroke-miterlimit: 10;"/>
    <g>
      <rect x="11.93" y="174.48" width="73.77" height="61.14" rx="6.32" ry="6.32" style="fill: #fff; stroke: #231f20; stroke-miterlimit: 10;"/>
      <rect x="17.61" y="180.54" width="10.23" height="21.34" rx="3.51" ry="3.51" style="fill: #fff; stroke: #231f20; stroke-miterlimit: 10;"/>
      <rect x="17.61" y="209.48" width="10.23" height="21.34" rx="3.51" ry="3.51" style="fill: #fff; stroke: #231f20; stroke-miterlimit: 10;"/>
    </g>
    <g>
      <rect x="11.93" y="90.73" width="73.77" height="61.14" rx="6.32" ry="6.32" style="fill: #fff; stroke: #231f20; stroke-miterlimit: 10;"/>
      <rect x="17.61" y="96.79" width="10.23" height="21.34" rx="3.51" ry="3.51" style="fill: #fff; stroke: #231f20; stroke-miterlimit: 10;"/>
      <rect x="17.61" y="125.73" width="10.23" height="21.34" rx="3.51" ry="3.51" style="fill: #fff; stroke: #231f20; stroke-miterlimit: 10;"/>
    </g>
    <g>
      <rect x="180.63" y="174.48" width="73.77" height="61.14" rx="6.32" ry="6.32" transform="translate(435.02 410.09) rotate(-180)" style="fill: #fff; stroke: #231f20; stroke-miterlimit: 10;"/>
      <rect x="238.48" y="180.54" width="10.23" height="21.34" rx="3.51" ry="3.51" transform="translate(487.19 382.42) rotate(-180)" style="fill: #fff; stroke: #231f20; stroke-miterlimit: 10;"/>
      <rect x="238.48" y="209.48" width="10.23" height="21.34" rx="3.51" ry="3.51" transform="translate(487.19 440.3) rotate(-180)" style="fill: #fff; stroke: #231f20; stroke-miterlimit: 10;"/>
    </g>
    <g>
      <rect x="180.63" y="90.73" width="73.77" height="61.14" rx="6.32" ry="6.32" transform="translate(435.02 242.6) rotate(-180)" style="fill: #fff; stroke: #231f20; stroke-miterlimit: 10;"/>
      <rect x="238.48" y="96.79" width="10.23" height="21.34" rx="3.51" ry="3.51" transform="translate(487.19 214.92) rotate(-180)" style="fill: #fff; stroke: #231f20; stroke-miterlimit: 10;"/>
      <rect x="238.48" y="125.73" width="10.23" height="21.34" rx="3.51" ry="3.51" transform="translate(487.19 272.81) rotate(-180)" style="fill: #fff; stroke: #231f20; stroke-miterlimit: 10;"/>
    </g>
    <rect x="105.75" y="34.99" width="2.27" height="37.14" transform="translate(53.33 160.45) rotate(-90)" style="fill: #231f20; stroke: #231f20; stroke-miterlimit: 10;"/>
    <rect x="162.34" y="34.99" width="2.27" height="37.14" transform="translate(109.92 217.04) rotate(-90)" style="fill: #231f20; stroke: #231f20; stroke-miterlimit: 10;"/>
    <g>
      <text transform="translate(151.73 176.36)" style="fill: #231f20; font-family: MyriadPro-Regular, &apos;Myriad Pro&apos;; font-size: 28px;"><tspan x="0" y="0">7</tspan></text>
      <circle cx="158.98" cy="167.46" r="15.33" style="fill: none; stroke: #231f20; stroke-miterlimit: 10;"/>
    </g>
    <g>
      <text transform="translate(102.49 176.36)" style="fill: #231f20; font-family: MyriadPro-Regular, &apos;Myriad Pro&apos;; font-size: 28px;"><tspan x="0" y="0">6</tspan></text>
      <circle cx="110.28" cy="167.46" r="15.33" style="fill: none; stroke: #231f20; stroke-miterlimit: 10;"/>
    </g>
  </g>
</svg>