<svg id="Layer_2" data-name="Layer 2" xmlns="http://www.w3.org/2000/svg" viewBox="0 0 127.15 215.36">
  <g id="Layer_1-2" data-name="Layer 1">
    <rect id="tuba-9" x="42.69" y="96.87" width="82.82" height="117.99" style="fill: #fff; stroke: #231f20; stroke-miterlimit: 10;"/>
    <rect x=".5" y="96.87" width="42.19" height="117.99" style="fill: #fff; stroke: #231f20; stroke-miterlimit: 10;"/>
    <rect x="38.91" y="10.27" width="48.19" height="125.01" transform="translate(135.78 9.77) rotate(90)" style="fill: #fff; stroke: #231f20; stroke-miterlimit: 10;"/>
    <rect x="9" y="-8" width="48.19" height="65.18" transform="translate(57.68 -8.5) rotate(90)" style="fill: #fff; stroke: #231f20; stroke-miterlimit: 10;"/>
    <g>
      <rect x="39.49" y="105.78" width="73.77" height="61.14" rx="6.32" ry="6.32" transform="translate(212.73 59.98) rotate(90)" style="fill: #fff; stroke: #231f20; stroke-miterlimit: 10;"/>
      <rect x="85.09" y="99.6" width="10.23" height="21.34" rx="3.51" ry="3.51" transform="translate(200.48 20.06) rotate(90)" style="fill: #fff; stroke: #231f20; stroke-miterlimit: 10;"/>
      <rect x="56.15" y="99.6" width="10.23" height="21.34" rx="3.51" ry="3.51" transform="translate(171.54 49) rotate(90)" style="fill: #fff; stroke: #231f20; stroke-miterlimit: 10;"/>
    </g>
    <rect x="124.37" y="174.12" width="2.27" height="37.14" style="fill: #231f20; stroke: #231f20; stroke-miterlimit: 10;"/>
    <rect x="20.46" y="78.3" width="2.27" height="37.14" transform="translate(118.47 75.28) rotate(90)" style="fill: #231f20; stroke: #231f20; stroke-miterlimit: 10;"/>
    <rect x="64.55" y="6.02" width="2.27" height="37.14" transform="translate(131.37 49.19) rotate(180)" style="fill: #231f20; stroke: #231f20; stroke-miterlimit: 10;"/>
    <g>
      <text transform="translate(24.25 29.14)" style="fill: #231f20; font-family: MinionVariableConcept-Roman, &apos;Minion Variable Concept&apos;; font-size: 12.92px; font-variation-settings: &apos;wght&apos; 400, &apos;opsz&apos; 11;"><tspan x="0" y="0" style="letter-spacing: 0em;">W</tspan><tspan x="11.99" y="0">C</tspan></text>
      <circle cx="34.47" cy="24.59" r="12.95" style="fill: none; stroke: #231f20; stroke-miterlimit: 10;"/>
    </g>
    <g>
      <text transform="translate(93.2 203.13)" style="fill: #231f20; font-family: MyriadPro-Regular, &apos;Myriad Pro&apos;; font-size: 28px;"><tspan x="0" y="0">9</tspan></text>
      <circle cx="99.97" cy="193.83" r="15.33" style="fill: none; stroke: #231f20; stroke-miterlimit: 10;"/>
    </g>
  </g>
</svg>