<?xml version="1.0" encoding="UTF-8"?>
<svg id="Layer_2" data-name="Layer 2" xmlns="http://www.w3.org/2000/svg" viewBox="0 0 990.12 927.35">
  <g id="Layer_1-2" data-name="Layer 1">
    <g>
      <path d="M346.91,182.75c2.4,3,4.3,5.8,4.3,6.4s3.3,4.5,7.3,8.7,11.1,11.9,15.9,17.1c11.4,12.7,41.4,42.1,57.3,56.3,15.1,13.4,33.1,27.5,48.1,37.5,13,8.7,15.6,10.2,17.2,10.2,4.7,0,46.8-30.4,63.2-45.5,31.3-29,60-57.4,72.7-72,24.7-28.5,38.4-54.1,43-80,3.6-20.7-.6-47.4-10.4-65.3-15.9-29.2-41.9-48.7-73.3-54.7-8.8-1.7-30.1-2-38.6-.4-19.1,3.4-38.5,12.9-52.4,25.7l-4.4,4.1-5.6-5.3c-12.6-12-32.7-21.7-51-24.6-8.9-1.4-29.9-1.1-39,.6-37.8,6.8-69.9,37.2-80.8,76.4-2.4,8.5-2.6,11.2-2.6,26,0,13.5,.4,18.1,2.2,25.3,4.4,17.9,14.6,38.1,26.9,53.5Z" style="fill: #7f0b0b;"/>
      <path d="M553.81,785.05c1.4-2.5,3.1-5.2,3.8-6.1,1.9-2.1,13.6-25.5,13.6-27.2,0-.7,1-2.9,2.1-4.8,2.9-4.7,10.8-25.5,11.6-30.5,.3-2.2,.9-4.5,1.3-5,1.9-2.5,6.6-22.4,8-34,.5-3.9,1.4-9.5,2-12.5,1.3-6.8,2.6-56.2,1.5-58.7-.4-1-.7-3.4-.6-5.3,.1-1.9-.6-7.8-1.4-13-.9-5.2-2.2-13.1-2.9-17.5-2-11.9-8.8-36.2-12.6-45-1-2.2-2.5-6.3-3.5-9-3.6-10.2-11.3-25.3-15-29.4-2.2-2.4-6.6-5.6-10.4-7.4-5.5-2.7-7.7-3.2-13.3-3.1-3.7,0-7.3,.5-8,1.1-.7,.6-2.6,1.3-4.2,1.7-1.6,.4-5.4,3.3-8.6,6.5-10.1,10.3-11.7,22.6-4.9,37.1,2,4.1,5.2,11.8,7.3,17,2.1,5.2,4.1,10.2,4.6,11,.4,.9,1.1,3.1,1.5,5,.4,1.9,1.1,4.1,1.5,5,.5,.8,1.4,4.2,2,7.5,.7,3.2,1.6,6.6,2.1,7.5,1.1,2.2,4,24.4,5,39.5,1.1,16.5-.2,35.9-4.1,60.5-.7,4.1-1.6,8.3-2.1,9.2s-1.2,3.6-1.5,5.9c-.4,2.4-1.3,5.4-2.1,6.8-.7,1.4-1.3,3.7-1.3,5.1s-.6,3.4-1.3,4.5c-.8,1.1-2.8,5.8-4.6,10.5-1.8,4.7-3.7,9.2-4.2,10s-2.5,4.9-4.6,9c-10.1,20.4-29.6,47.1-45.3,62-10.8,10.2-31.7,26.4-40.8,31.6-2.1,1.1-5.4,3-7.5,4.3-7.2,4.1-21.2,10.9-28.1,13.6-3.8,1.5-7.7,3.1-8.5,3.5-2.7,1.4-19.1,5.9-30.6,8.4-32.5,7.2-65.3,7.4-99.2,.6-12.1-2.4-31.9-8.3-38.9-11.5-2.8-1.3-7-2.9-9.2-3.5-2.3-.6-4.3-1.4-4.6-1.9-.3-.4-5-3.1-10.5-5.9-12.7-6.6-31.4-19-41.4-27.5-5.9-5-25.9-24.9-30.4-30.3-11.2-13.6-29.3-43.6-35.6-59.4-1-2.5-2.5-5.9-3.3-7.6-.9-1.7-1.9-4.6-2.4-6.5-2.1-8.4-6.3-22.6-7.1-24.2-2.1-4-5.2-34.3-5.3-52.2-.1-19.6,1.2-41.3,2.6-42.1,.4-.3,.8-2.5,.8-4.9s.5-4.7,1-5c.6-.3,1-1.5,1-2.5,0-2.1,6.6-25.4,8-28.5,.5-1.1,2.3-5.5,4-9.8,1.6-4.3,4.4-10.4,6-13.7,1.7-3.3,3-6.4,3-6.9,0-.6,1.3-3,2.9-5.3,1.5-2.4,5.9-8.9,9.6-14.6,7.7-11.6,13.4-19.1,23.3-29.9,3.7-4.2,6.9-7.8,7.2-8.2,.6-.7,11.9-10.5,20-17.2,17.1-14.2,50-32.2,71-38.8,26.7-8.3,43.2-11.2,69.1-11.8,22.9-.6,35.6,.4,55.6,4.2,11.6,2.3,33,8.6,41,12.1,1.7,.8,3.7,1.4,4.5,1.4,.7,0,2.7,.8,4.4,1.9,1.6,1,8.8,4.9,16,8.6l12.9,6.7,8.3-.5c12.8-.9,21.8-6.3,25.7-15.4,.9-2.1,2.3-5.1,3.1-6.6,2-4.1,1.7-11.7-.7-18.4-4-10.8-13.5-17.7-42.9-31.2-22.2-10.1-49.5-18-77.5-22.2-15.2-2.3-55-3.3-71-1.8-10,.9-27.4,3.8-35,5.8-2.2,.5-8.3,1.9-13.5,3.1-5.2,1.2-11.3,3-13.5,4-2.2,1.1-4.9,2-6,2s-4.2,1.2-7,2.5c-2.7,1.4-5.8,2.5-6.7,2.5s-2,.4-2.3,1c-.3,.5-1.3,1-2.2,1-2,0-33.9,15.5-34.7,16.9-.4,.6-2.6,1.9-4.9,2.9s-4.8,2.6-5.6,3.5c-.7,1-1.8,1.7-2.3,1.7-3.1,0-33.4,23.8-46.4,36.6-9.1,8.9-24.4,25.9-24.4,27.2,0,.4-2,2.9-4.5,5.6-2.5,2.6-4.5,5.4-4.5,6s-1.2,2.4-2.7,4c-4.8,5-19.8,30-25.3,42.1-1.2,2.7-3.1,6.6-4.1,8.6-1.1,2-1.9,4.4-1.9,5.3,0,.8-1.4,4.2-3,7.4-1.7,3.3-3,6.8-3,7.9,0,1-.4,2.3-.9,2.8-.9,.9-3.5,9.3-4.8,15.5-.3,1.4-.9,3-1.4,3.5-.4,.6-1.3,3.5-1.8,6.5s-1.7,8.6-2.6,12.5c-.8,3.8-2,10.3-2.6,14.5-.5,4.1-1.4,10.6-1.9,14.5-1.5,10.8-1.6,39.4-.3,56.5,1.6,20.4,8.2,55.5,11.3,59.5,.4,.5,1.1,2.8,1.5,5,.4,2.2,1,4.4,1.5,5,.4,.5,1,2.3,1.4,4,.4,1.6,1.4,4.3,2.1,6,.7,1.6,2.3,5.7,3.5,9,1.2,3.3,3.4,8.5,5,11.5,1.5,3,3.3,6.6,3.9,8,1.9,4.4,7.8,15,9.4,16.8,.8,.9,2.5,3.7,3.8,6.2,7.2,14.3,22.4,33.3,43,53.9,12.1,12,15.8,15.5,25.9,24,6.1,5,21.5,16.1,22.5,16.1,.5,0,1.6,.7,2.5,1.5,2.5,2.3,15.4,9.4,32.5,17.8,17.2,8.6,39.4,16.8,51.6,19.2,4.6,.9,9.3,2,10.4,2.5,8.3,3.7,39.2,7.3,62.5,7.3s21.5,0,39.5-1.9c18.7-2,51.3-9.2,59.1-13.1,1-.6,5.1-2,8.9-3.3,9.5-3,30.1-12.6,45-20.8,8.2-4.5,28.5-18.2,28.5-19.3,0-.5,.6-.9,1.3-.9,1.1,0,5.3-3.3,18.6-14.8,14.5-12.5,32.1-31.5,43.4-46.9,8.3-11.3,12.2-17.1,14.3-21.2Z" style="fill: #7f0b0b;"/>
      <path d="M984.11,567.45c-3.8-18.6-13.3-48.7-18.4-58.5-.7-1.4-3.2-6.6-5.5-11.5-14.1-30.6-38.3-63.4-65-88.2-35.2-32.6-73.8-54.6-121-68.7-25.1-7.5-46.9-10.6-77.5-11-13.2-.2-26.2-.2-29,0-43,3.2-87,16.7-125.5,38.5-44.1,24.9-87.2,68-111.5,111.4-25.2,44.8-37.6,89.8-39.2,141.5-1.3,46.7,8.6,93.4,29.4,137.9,5.9,12.5,12.3,18.7,22.6,21.8,14,4.1,29.9-3,36.2-16.2,2-4.4,2.5-6.9,2.5-13.5,0-7.5-.3-8.9-4.1-16.8-8.6-18.5-12.2-27.8-16.3-42.7-6.4-23.7-8-35.9-8-62.5,0-31.2,2.1-45.5,10.5-72.2,28.2-89.5,107-154.2,200.9-164.8,11.4-1.3,39.8-1.3,51.8,.1,64.2,7.1,123.8,41,163.2,92.9,17.3,22.8,33.3,54.9,39.6,79.5,6.9,27.3,8.9,44.8,8.1,71.5-1,32-5.4,52.5-17.9,83.5-11.4,28.2-27.8,52.6-51.3,76.1-37.6,37.8-81,59.8-134.5,68.1-14.5,2.2-51,2.5-64.5,.4-28.9-4.4-53.8-12.4-77.5-24.8-6.9-3.6-14.3-7.5-16.4-8.6-4.7-2.5-17.7-3.5-22.8-1.8-10.3,3.4-17.6,11.4-20.5,22.5-1.5,5.6-1.6,7.3-.4,12.7,1.3,6.7,4.6,13.2,8.3,16.6,4.5,4.1,25.2,15.6,39.8,22.1,15.1,6.8,42.9,15.4,61,19.1,21.9,4.3,34.4,5.5,60,5.5,24.9-.1,40.1-1.5,61.1-5.9,15.2-3.2,42.7-11.6,52.9-16.1,20.8-9.3,35-16.9,50.6-26.9,33.4-21.6,71.4-60.7,88.5-91,1.8-3.3,5-8.5,6.9-11.5,6.5-9.8,16.4-31.2,22-47.5,17.9-52,21.7-108.1,10.9-161Z" style="fill: #7f0b0b;"/>
    </g>
  </g>
</svg>